<svg width="192" height="31" viewBox="0 0 192 31" fill="none" xmlns="http://www.w3.org/2000/svg">
<g clip-path="url(#clip0_3156_4368)">
<path fill-rule="evenodd" clip-rule="evenodd" d="M143.962 13.7121C146.872 13.7121 148.327 14.7471 148.327 16.8191C148.327 19.2978 146.663 20.5374 143.335 20.5374L132.535 20.5219L134.813 17.6169H143.614C144.437 17.6169 144.849 17.3397 144.849 16.7851C144.849 16.2416 144.437 15.9708 143.614 15.9708H137.283C135.834 15.9708 134.732 15.6704 133.979 15.0699C133.271 14.5154 132.918 13.7291 132.918 12.7101C132.918 10.3553 134.581 9.17845 137.909 9.17845H148.014L145.701 12.1328H137.631C136.808 12.1328 136.396 12.3929 136.396 12.9135C136.396 13.4457 136.808 13.7121 137.631 13.7121H143.962ZM131.521 15.5799C131.521 19.0092 129.104 20.7245 124.268 20.7245C121.486 20.7245 119.445 20.2936 118.146 19.4338C116.883 18.6073 116.251 17.3225 116.251 15.5799V9.17794H119.834V15.5799C119.834 16.44 120.112 17.0231 120.668 17.3286C121.248 17.6452 122.448 17.8042 124.268 17.8042C125.637 17.8042 126.587 17.6339 127.121 17.2946C127.643 16.9668 127.903 16.3948 127.903 15.5799V9.17794H131.521V15.5799ZM115.219 9.17794L111.55 12.4555C110.251 13.5989 109.387 14.3342 108.959 14.6629C109.213 14.8324 110.152 15.6524 111.776 17.1248L115.497 20.5374H110.419L106.454 16.7851L102.367 20.5374H97.897L101.688 17.1248C103.045 15.902 103.949 15.1272 104.401 14.7981L104.245 14.6799C104.152 14.612 104.089 14.561 104.054 14.5272C103.938 14.4363 103.775 14.3003 103.567 14.1195C103.103 13.7233 102.476 13.163 101.688 12.4384L98.1229 9.17794H103.115L106.819 12.7101L110.558 9.17794H115.219ZM97.4621 17.6168L95.149 20.5374H83.9486V9.17794H97.4271L95.0969 12.1328H87.5656V13.4905H96.7836L94.7139 16.0712H87.5656V17.6168H97.4621ZM71.2692 13.8645V20.5374H68V11.1139C68 10.4009 68.1968 9.85769 68.5913 9.48432C68.9621 9.15578 69.4199 8.9917 69.965 8.9917C70.4988 8.9917 70.9793 9.19494 71.4088 9.60269L78.5391 15.8513V9.17794H81.8265V18.5849C81.8265 19.2979 81.6296 19.8412 81.235 20.2149C80.8754 20.5547 80.4118 20.7245 79.8438 20.7245C79.3217 20.7245 78.8408 20.5204 78.4003 20.1132L71.2692 13.8645Z" fill="#EEF0F4"/>
<rect x="16.5" width="31" height="31" rx="5.5" stroke="#EEF0F4"/>
<circle cx="32" cy="19" r="2" transform="rotate(-90 32 19)" fill="#EEF0F4"/>
<circle cx="32" cy="12" r="2" transform="rotate(-90 32 12)" fill="#EEF0F4"/>
</g>
<defs>
<clipPath id="clip0_3156_4368">
<rect width="192" height="31" fill="white"/>
</clipPath>
</defs>
</svg>
