<svg width="82" height="13" viewBox="0 0 82 13" fill="none" xmlns="http://www.w3.org/2000/svg">
<path fill-rule="evenodd" clip-rule="evenodd" d="M76.7116 5.22043C79.6219 5.22043 81.0771 6.25541 81.0771 8.32738C81.0771 10.8061 79.4132 12.0457 76.0853 12.0457L65.2851 12.0302L67.5632 9.12524H76.3639C77.1869 9.12524 77.599 8.84796 77.599 8.29338C77.599 7.74989 77.1869 7.47915 76.3639 7.47915H70.033C68.5836 7.47915 67.4822 7.17869 66.7289 6.57816C66.0213 6.02371 65.6678 5.23743 65.6678 4.21844C65.6678 1.86364 67.3314 0.686747 70.6591 0.686747H80.764L78.4512 3.64108H70.3813C69.5577 3.64108 69.1463 3.90124 69.1463 4.42181C69.1463 4.95397 69.5577 5.22043 70.3813 5.22043H76.7116ZM64.2708 7.08815C64.2708 10.5175 61.8535 12.2328 57.0182 12.2328C54.2357 12.2328 52.195 11.8019 50.896 10.9421C49.6326 10.1156 49.001 8.83083 49.001 7.08815V0.686243H52.5836V7.08815C52.5836 7.94835 52.862 8.53138 53.4185 8.83687C53.9984 9.15345 55.1981 9.31249 57.0182 9.31249C58.3865 9.31249 59.3374 9.14224 59.8709 8.80287C60.3925 8.47509 60.6534 7.90314 60.6534 7.08815V0.686243H64.2708V7.08815ZM47.9693 0.686243L44.2998 3.96382C43.0008 5.10722 42.137 5.8425 41.7086 6.17116C41.9634 6.34066 42.9024 7.16068 44.5257 8.63313L48.2474 12.0457H43.1691L39.2037 8.29338L35.1167 12.0457H30.647L34.4382 8.63313C35.795 7.41027 36.6993 6.63545 37.1514 6.30641L36.9948 6.18816C36.9022 6.12029 36.8386 6.06929 36.8039 6.03554C36.6877 5.94463 36.5252 5.80863 36.3167 5.6278C35.8526 5.23164 35.2264 4.67127 34.4382 3.9467L30.8729 0.686243H35.8645L39.5689 4.21844L43.3084 0.686243H47.9693ZM30.2121 9.12512L27.899 12.0457H16.6986V0.686243H30.1771L27.8469 3.64108H20.3156V4.9988H29.5336L27.4639 7.57951H20.3156V9.12512H30.2121ZM4.01915 5.3728V12.0457H0.75V2.62222C0.75 1.90923 0.946834 1.36599 1.34127 0.992619C1.71211 0.66408 2.16988 0.5 2.71497 0.5C3.24885 0.5 3.72932 0.703243 4.15884 1.11099L11.2891 7.35965V0.686243H14.5765V10.0932C14.5765 10.8062 14.3796 11.3495 13.985 11.7232C13.6254 12.063 13.1618 12.2328 12.5938 12.2328C12.0717 12.2328 11.5908 12.0287 11.1503 11.6215L4.01915 5.3728Z" fill="#EEF0F4"/>
</svg>
