<svg width="6" height="4" viewBox="0 0 6 4" fill="none" xmlns="http://www.w3.org/2000/svg">
<path d="M0.350024 3.3499C0.258358 3.25824 0.212524 3.14157 0.212524 2.9999C0.212524 2.85824 0.258358 2.74157 0.350024 2.6499L2.65002 0.349902C2.70002 0.299902 2.75419 0.264402 2.81252 0.243402C2.87086 0.222736 2.93336 0.212402 3.00002 0.212402C3.06669 0.212402 3.13136 0.224902 3.19402 0.249902C3.25636 0.274902 3.30836 0.308235 3.35002 0.349902L5.65002 2.6499C5.74169 2.74157 5.78752 2.85824 5.78752 2.9999C5.78752 3.14157 5.74169 3.25824 5.65002 3.3499C5.55836 3.44157 5.44169 3.4874 5.30002 3.4874C5.15836 3.4874 5.04169 3.44157 4.95002 3.3499L3.00002 1.3999L1.05002 3.3499C0.958358 3.44157 0.841691 3.4874 0.700024 3.4874C0.558358 3.4874 0.441691 3.44157 0.350024 3.3499Z" fill="#7D8FA9"/>
</svg>
